<svg width="64" height="64" viewBox="0 0 64 64" fill="none" xmlns="http://www.w3.org/2000/svg">
  <!-- Background -->
  <rect width="64" height="64" fill="hsl(240, 5%, 8%)" rx="12"/>
  
  <!-- Motion Track Lines (Centered Horizontally) -->
  <path d="M 20 48 H 44" stroke="#334155" stroke-width="2" stroke-linecap="round" opacity="0.5"/>
  <path d="M 26 54 H 38" stroke="#334155" stroke-width="2" stroke-linecap="round" opacity="0.3"/>

  <!-- Main Content Group (Centered Vertically) -->
  <g>
      <!-- Train Body (Semicircle Front) -->
      <!-- Rect from 12,20 to 46,40 + Semicircle centered at 46,30 radius 10 -->
      <path d="M 12 20 L 46 20 A 10 10 0 0 1 46 40 L 12 40 Z" fill="#E2E8F0"/>
      
      <!-- Windshield (Aligned with top) -->
      <path d="M 36 20 L 46 20 A 10 10 0 0 1 54.66 25 H 41 L 36 20 Z" fill="#1E293B"/>
      
      <!-- Horizontal Streak (Aligned Left, Following Curve) -->
      <!-- Starts at x=12, y=30 (center). Follows arc from 56,30 to y=34 -->
      <path d="M 12 30 L 56 30 A 10 10 0 0 1 55.17 34 H 12 V 30 Z" fill="#00F0FF" opacity="0.4"/>
      
      <!-- Speed Lines (Centered Vertically relative to train body) -->
      <path d="M 6 24 H 10" stroke="#00F0FF" stroke-width="2" stroke-linecap="round"/>
      <path d="M 4 30 H 9" stroke="#00F0FF" stroke-width="2" stroke-linecap="round" opacity="0.7"/>
      <path d="M 7 36 H 10" stroke="#00F0FF" stroke-width="2" stroke-linecap="round" opacity="0.4"/>
  </g>
</svg>
